<?xml version="1.0" encoding="utf-8"?>
<!-- Generator: Adobe Illustrator 16.0.4, SVG Export Plug-In . SVG Version: 6.00 Build 0)  -->
<!DOCTYPE svg PUBLIC "-//W3C//DTD SVG 1.1//EN" "http://www.w3.org/Graphics/SVG/1.1/DTD/svg11.dtd">
<svg version="1.1" xmlns="http://www.w3.org/2000/svg" xmlns:xlink="http://www.w3.org/1999/xlink" x="0px" y="0px" width="30px"
	 height="30px" viewBox="0 0 30 30" enable-background="new 0 0 30 30" xml:space="preserve">
<g id="Layer_2">
</g>
<g id="Layer_1">
	<path fill-rule="evenodd" clip-rule="evenodd" fill="#E51B23" d="M27,0.8c0.667,0.1,1.467,0.35,2.4,0.75
		C26.6,3.117,24.233,5.167,22.3,7.7c-1.934,2.5-4.616,7.05-8.05,13.649l-2.5-6.199c-0.933-2.167-1.983-4-3.15-5.5
		c0.867-0.533,1.633-0.733,2.3-0.6c0.833,0.133,1.533,0.55,2.1,1.25c0.533,0.7,1.15,1.967,1.85,3.8c1.7-3.434,3.683-6.65,5.95-9.65
		C22,2.817,23.033,1.767,23.9,1.3C24.733,0.767,25.767,0.6,27,0.8z"/>
</g>
</svg>
