<?xml version="1.0" encoding="UTF-8"?>
<svg width="20px" height="20px" viewBox="0 0 20 20" version="1.1" xmlns="http://www.w3.org/2000/svg" xmlns:xlink="http://www.w3.org/1999/xlink">
    <!-- Generator: Sketch 43.1 (39012) - http://www.bohemiancoding.com/sketch -->
    <title>Fill 459 Copy 2</title>
    <desc>Created with Sketch.</desc>
    <defs></defs>
    <g id="Homepage" stroke="none" stroke-width="1" fill="none" fill-rule="evenodd" opacity="0.329879982">
        <g transform="translate(-107.000000, -4941.000000)" id="Fill-459-Copy-2" fill="#FFFFFF">
            <g transform="translate(117.000000, 4951.000000) scale(-1, 1) translate(-117.000000, -4951.000000) translate(107.000000, 4941.000000)">
                <path d="M19.9816667,9.82898771 C19.98,9.81982088 19.975,9.8114874 19.9733333,9.80148723 C19.9625,9.75565309 19.9491667,9.71148564 19.9308333,9.66981824 C19.9241667,9.65315128 19.9141667,9.63981772 19.9058333,9.62398411 C19.8891667,9.59065019 19.8708333,9.55648292 19.85,9.52481569 C19.8366667,9.50648204 19.8216667,9.49148177 19.8075,9.47398147 C19.7866667,9.44814768 19.765,9.42231389 19.7416667,9.39898015 C19.7366667,9.39564675 19.7333333,9.38981332 19.7291667,9.38564658 L9.72916667,0.218818625 C9.39,-0.0920201773 8.8625,-0.0686864334 8.55166667,0.269652853 C8.24083333,0.609658835 8.26416667,1.13633477 8.60333333,1.44717357 L17.0233333,9.16647606 L0.833333333,9.16647606 C0.3725,9.16647606 0,9.53981596 0,9.99982405 C0,10.4606655 0.3725,10.833172 0.833333333,10.833172 L17.0233333,10.833172 L8.60333333,18.5524745 C8.26416667,18.8641467 8.24083333,19.3908226 8.55166667,19.7299952 C8.71666667,19.9099984 8.94083333,20 9.16666667,20 C9.36833333,20 9.56916667,19.9274987 9.72916667,19.7808295 L19.7291667,10.6140015 C19.7333333,10.6098348 19.7366667,10.605668 19.7416667,10.600668 C19.7658333,10.5773342 19.7866667,10.5515004 19.8083333,10.5256666 C19.8225,10.5089997 19.8366667,10.4931661 19.85,10.4748324 C19.8708333,10.4431652 19.8891667,10.4098313 19.9058333,10.375664 C19.9141667,10.3606637 19.9241667,10.3464968 19.9308333,10.3314966 C19.9491667,10.2889958 19.9625,10.2431617 19.9733333,10.1973275 C19.975,10.188994 19.98,10.1806606 19.9816667,10.1706604 C19.9933333,10.1156594 20,10.0581584 20,9.99982405 C20,9.94148969 19.9933333,9.88398868 19.9816667,9.82898771" id="Fill-459"></path>
            </g>
        </g>
    </g>
</svg>