<?xml version="1.0" encoding="UTF-8"?>
<svg width="11px" height="11px" viewBox="0 0 11 11" version="1.1" xmlns="http://www.w3.org/2000/svg" xmlns:xlink="http://www.w3.org/1999/xlink">
    <!-- Generator: Sketch 43.1 (39012) - http://www.bohemiancoding.com/sketch -->
    <title>Fill 459</title>
    <desc>Created with Sketch.</desc>
    <defs></defs>
    <g id="Symbols" stroke="none" stroke-width="1" fill="none" fill-rule="evenodd">
        <g id="Buttons-/-Default" transform="translate(-110.000000, -17.000000)" fill="#FFFFFF">
            <g id="Fill-459" transform="translate(110.000000, 17.000000)">
                <path d="M10.9899167,5.40594324 C10.989,5.40090149 10.98625,5.39631807 10.9853333,5.39081798 C10.979375,5.3656092 10.9720417,5.3413171 10.9619583,5.31840003 C10.9582917,5.30923321 10.9527917,5.30189974 10.9482083,5.29319126 C10.9390417,5.2748576 10.9289583,5.2560656 10.9175,5.23864863 C10.9101667,5.22856512 10.9019167,5.22031498 10.894125,5.21068981 C10.8826667,5.19648122 10.87075,5.18227264 10.8579167,5.16943908 C10.8551667,5.16760571 10.8533333,5.16439733 10.8510417,5.16210562 L5.35104167,0.120350244 C5.1645,-0.0506110975 4.874375,-0.0377775384 4.70341667,0.148309069 C4.53245833,0.335312359 4.54529167,0.624984123 4.73183333,0.795945464 L9.36283333,5.04156183 L0.458333333,5.04156183 C0.204875,5.04156183 0,5.24689878 0,5.49990323 C0,5.75336602 0.204875,5.95824463 0.458333333,5.95824463 L9.36283333,5.95824463 L4.73183333,10.203861 C4.54529167,10.3752807 4.53245833,10.6649524 4.70341667,10.8514974 C4.79416667,10.9504991 4.91745833,11 5.04166667,11 C5.15258333,11 5.26304167,10.9601243 5.35104167,10.8794562 L10.8510417,5.83770084 C10.8533333,5.83540913 10.8551667,5.83311742 10.8579167,5.83036738 C10.8712083,5.81753382 10.8826667,5.80332523 10.8945833,5.78911665 C10.902375,5.77994982 10.9101667,5.77124134 10.9175,5.76115782 C10.9289583,5.74374085 10.9390417,5.7254072 10.9482083,5.7066152 C10.9527917,5.69836505 10.9582917,5.69057325 10.9619583,5.6823231 C10.9720417,5.65894769 10.979375,5.63373892 10.9853333,5.60853014 C10.98625,5.60394673 10.989,5.59936331 10.9899167,5.59386321 C10.9963333,5.56361268 11,5.53198713 11,5.49990323 C11,5.46781933 10.9963333,5.43619377 10.9899167,5.40594324"></path>
            </g>
        </g>
    </g>
</svg>